# Blender v2.81 (sub 16) OBJ File: ''
# www.blender.org
mtllib cone.mtl
o Cone
v 0.000000 1.000000 1.000000
v 0.195090 1.000000 0.980786
v 0.382683 1.000000 0.923880
v 0.555570 1.000000 0.831470
v 0.707107 1.000000 0.707107
v 0.831470 1.000000 0.555570
v 0.923880 1.000000 0.382684
v 0.980785 1.000000 0.195091
v 1.000000 1.000000 0.000000
v 0.980785 1.000000 -0.195090
v 0.923880 1.000000 -0.382683
v 0.831470 1.000000 -0.555570
v 0.707107 1.000000 -0.707106
v 0.555570 1.000000 -0.831469
v 0.382683 1.000000 -0.923879
v 0.195090 1.000000 -0.980785
v -0.000000 1.000000 -1.000000
v -0.195091 1.000000 -0.980785
v -0.382684 1.000000 -0.923879
v -0.555571 1.000000 -0.831469
v -0.707107 1.000000 -0.707106
v -0.831470 1.000000 -0.555569
v -0.923880 1.000000 -0.382682
v 0.000000 -1.000000 -0.000000
v -0.980785 1.000000 -0.195089
v -1.000000 1.000000 0.000001
v -0.980785 1.000000 0.195092
v -0.923879 1.000000 0.382685
v -0.831469 1.000000 0.555572
v -0.707106 1.000000 0.707108
v -0.555569 1.000000 0.831471
v -0.382682 1.000000 0.923880
v -0.195089 1.000000 0.980786
vt 0.023482 0.136537
vt 0.502311 0.010703
vt 0.036344 0.177992
vt 0.052786 0.218161
vt 0.072684 0.256736
vt 0.095884 0.293420
vt 0.122208 0.327930
vt 0.151453 0.360003
vt 0.183395 0.389390
vt 0.217789 0.415868
vt 0.254369 0.439231
vt 0.292854 0.459300
vt 0.332950 0.475921
vt 0.374347 0.488967
vt 0.416728 0.498337
vt 0.459766 0.503959
vt 0.503132 0.505789
vt 0.546491 0.503815
vt 0.589511 0.498050
vt 0.631861 0.488540
vt 0.673214 0.475357
vt 0.713254 0.458603
vt 0.751673 0.438406
vt 0.788176 0.414922
vt 0.822481 0.388330
vt 0.854325 0.358837
vt 0.883464 0.326668
vt 0.909673 0.292070
vt 0.932751 0.255309
vt 0.952521 0.216669
vt 0.968831 0.176446
vt 0.981555 0.134948
vt 0.990595 0.092496
vt 0.014301 0.094116
vt 0.932203 0.876809
vt 0.941557 0.880684
vt 0.949975 0.886308
vt 0.957134 0.893468
vt 0.962759 0.901886
vt 0.966634 0.911240
vt 0.968609 0.921170
vt 0.968609 0.931295
vt 0.966634 0.941225
vt 0.962759 0.950578
vt 0.957134 0.958997
vt 0.949975 0.966156
vt 0.941557 0.971781
vt 0.932203 0.975655
vt 0.922273 0.977631
vt 0.912148 0.977631
vt 0.902218 0.975655
vt 0.892864 0.971781
vt 0.884446 0.966156
vt 0.877287 0.958997
vt 0.871662 0.950578
vt 0.867787 0.941225
vt 0.865812 0.931295
vt 0.865812 0.921170
vt 0.867787 0.911240
vt 0.871662 0.901886
vt 0.877287 0.893468
vt 0.884446 0.886308
vt 0.892864 0.880684
vt 0.902218 0.876809
vt 0.912148 0.874834
vt 0.922273 0.874834
vn 0.0878 -0.4455 0.8910
vn 0.2599 -0.4455 0.8567
vn 0.4220 -0.4455 0.7896
vn 0.5680 -0.4455 0.6921
vn 0.6921 -0.4455 0.5680
vn 0.7896 -0.4455 0.4220
vn 0.8567 -0.4455 0.2599
vn 0.8910 -0.4455 0.0878
vn 0.8910 -0.4455 -0.0878
vn 0.8567 -0.4455 -0.2599
vn 0.7896 -0.4455 -0.4220
vn 0.6921 -0.4455 -0.5680
vn 0.5680 -0.4455 -0.6921
vn 0.4220 -0.4455 -0.7896
vn 0.2599 -0.4455 -0.8567
vn 0.0878 -0.4455 -0.8910
vn -0.0878 -0.4455 -0.8910
vn -0.2599 -0.4455 -0.8567
vn -0.4220 -0.4455 -0.7896
vn -0.5680 -0.4455 -0.6921
vn -0.6921 -0.4455 -0.5680
vn -0.7896 -0.4455 -0.4220
vn -0.8567 -0.4455 -0.2599
vn -0.8910 -0.4455 -0.0878
vn -0.8910 -0.4455 0.0878
vn -0.8567 -0.4455 0.2599
vn -0.7896 -0.4455 0.4220
vn -0.6921 -0.4455 0.5680
vn -0.5680 -0.4455 0.6921
vn -0.4220 -0.4455 0.7896
vn -0.2599 -0.4455 0.8567
vn -0.0878 -0.4455 0.8910
vn 0.0000 1.0000 0.0000
usemtl Material
s off
f 1/1/1 24/2/1 2/3/1
f 2/3/2 24/2/2 3/4/2
f 3/4/3 24/2/3 4/5/3
f 4/5/4 24/2/4 5/6/4
f 5/6/5 24/2/5 6/7/5
f 6/7/6 24/2/6 7/8/6
f 7/8/7 24/2/7 8/9/7
f 8/9/8 24/2/8 9/10/8
f 9/10/9 24/2/9 10/11/9
f 10/11/10 24/2/10 11/12/10
f 11/12/11 24/2/11 12/13/11
f 12/13/12 24/2/12 13/14/12
f 13/14/13 24/2/13 14/15/13
f 14/15/14 24/2/14 15/16/14
f 15/16/15 24/2/15 16/17/15
f 16/17/16 24/2/16 17/18/16
f 17/18/17 24/2/17 18/19/17
f 18/19/18 24/2/18 19/20/18
f 19/20/19 24/2/19 20/21/19
f 20/21/20 24/2/20 21/22/20
f 21/22/21 24/2/21 22/23/21
f 22/23/22 24/2/22 23/24/22
f 23/24/23 24/2/23 25/25/23
f 25/25/24 24/2/24 26/26/24
f 26/26/25 24/2/25 27/27/25
f 27/27/26 24/2/26 28/28/26
f 28/28/27 24/2/27 29/29/27
f 29/29/28 24/2/28 30/30/28
f 30/30/29 24/2/29 31/31/29
f 31/31/30 24/2/30 32/32/30
f 32/32/31 24/2/31 33/33/31
f 33/34/32 24/2/32 1/1/32
f 1/35/33 2/36/33 3/37/33 4/38/33 5/39/33 6/40/33 7/41/33 8/42/33 9/43/33 10/44/33 11/45/33 12/46/33 13/47/33 14/48/33 15/49/33 16/50/33 17/51/33 18/52/33 19/53/33 20/54/33 21/55/33 22/56/33 23/57/33 25/58/33 26/59/33 27/60/33 28/61/33 29/62/33 30/63/33 31/64/33 32/65/33 33/66/33
